<svg data-v-423bf9ae="" xmlns="http://www.w3.org/2000/svg" viewBox="0 0 225.53870460276113 60" class="font"><!----><!----><!----><g data-v-423bf9ae="" id="5ecc9e24-2da0-42f5-93fc-895fbb9f2317" fill="white" transform="matrix(4.788507683852314,0,0,4.788507683852314,-5.219470181896796,-16.903432225416942)"><path d="M7.66 13.33L1.57 13.33L1.57 13.33Q1.09 13.33 1.09 12.82L1.09 12.82L1.09 4.04L1.09 4.04Q1.09 3.53 1.57 3.53L1.57 3.53L7.44 3.53L7.44 3.53Q7.95 3.53 7.95 3.97L7.95 3.97L7.95 4.78L7.95 4.78Q7.95 5.22 7.44 5.22L7.44 5.22L3.09 5.22L3.09 7.40L7.08 7.40L7.08 7.40Q7.59 7.40 7.59 7.84L7.59 7.84L7.59 8.65L7.59 8.65Q7.59 9.09 7.08 9.09L7.08 9.09L3.09 9.09L3.09 11.63L7.66 11.63L7.66 11.63Q8.17 11.63 8.17 12.08L8.17 12.08L8.17 12.89L8.17 12.89Q8.17 13.33 7.66 13.33L7.66 13.33ZM10.67 13.33L9.38 13.33L9.38 13.33Q8.79 13.33 9.13 12.83L9.13 12.83L11.40 9.55L9.40 6.65L9.40 6.65Q9.06 6.15 9.65 6.15L9.65 6.15L10.94 6.15L10.94 6.15Q11.25 6.15 11.40 6.43L11.40 6.43L12.46 8.27L13.52 6.43L13.52 6.43Q13.68 6.15 13.99 6.15L13.99 6.15L15.28 6.15L15.28 6.15Q15.87 6.15 15.52 6.65L15.52 6.65L13.51 9.55L15.79 12.83L15.79 12.83Q16.14 13.33 15.54 13.33L15.54 13.33L14.25 13.33L14.25 13.33Q13.95 13.33 13.79 13.06L13.79 13.06L12.46 10.83L11.14 13.06L11.14 13.06Q10.97 13.33 10.67 13.33L10.67 13.33ZM18.61 16.06L17.51 16.06L17.51 16.06Q17.10 16.06 17.10 15.65L17.10 15.65L17.10 6.56L17.10 6.56Q17.10 6.15 17.51 6.15L17.51 6.15L18.59 6.15L18.59 6.15Q18.94 6.15 18.96 6.56L18.96 6.56L18.99 6.96L19.02 6.96L19.02 6.96Q19.37 6.37 19.81 6.19L19.81 6.19L19.81 6.19Q20.25 6.02 20.86 6.02L20.86 6.02L20.86 6.02Q22.47 6.02 23.12 7.13L23.12 7.13L23.12 7.13Q23.78 8.24 23.78 9.74L23.78 9.74L23.78 9.74Q23.78 11.25 23.12 12.36L23.12 12.36L23.12 12.36Q22.47 13.47 20.86 13.47L20.86 13.47L20.86 13.47Q20.25 13.47 19.81 13.29L19.81 13.29L19.81 13.29Q19.37 13.11 19.02 12.52L19.02 12.52L18.99 12.52L18.99 12.52Q19.02 12.80 19.02 13.07L19.02 13.07L19.02 15.65L19.02 15.65Q19.02 16.06 18.61 16.06L18.61 16.06ZM19.02 9.43L19.02 10.05L19.02 10.05Q19.02 10.97 19.38 11.55L19.38 11.55L19.38 11.55Q19.75 12.13 20.26 12.13L20.26 12.13L20.26 12.13Q21.18 12.13 21.47 11.48L21.47 11.48L21.47 11.48Q21.75 10.83 21.75 9.74L21.75 9.74L21.75 9.74Q21.75 8.65 21.47 8.00L21.47 8.00L21.47 8.00Q21.18 7.36 20.26 7.36L20.26 7.36L20.26 7.36Q19.75 7.36 19.38 7.93L19.38 7.93L19.38 7.93Q19.02 8.51 19.02 9.43L19.02 9.43ZM31.95 13.33L25.25 13.33L25.25 13.33Q24.74 13.33 24.74 12.89L24.74 12.89L24.74 12.33L24.74 12.33Q24.74 11.85 25.09 11.38L25.09 11.38L29.53 5.24L29.53 5.19L29.53 5.19Q29.12 5.22 28.71 5.22L28.71 5.22L25.53 5.22L25.53 5.22Q25.01 5.22 25.01 4.78L25.01 4.78L25.01 3.97L25.01 3.97Q25.01 3.53 25.53 3.53L25.53 3.53L31.76 3.53L31.76 3.53Q32.27 3.53 32.27 3.97L32.27 3.97L32.27 4.43L32.27 4.43Q32.27 4.79 32.03 5.12L32.03 5.12L27.32 11.62L27.32 11.67L27.32 11.67Q27.73 11.63 28.14 11.63L28.14 11.63L31.95 11.63L31.95 11.63Q32.46 11.63 32.46 12.08L32.46 12.08L32.46 12.89L32.46 12.89Q32.46 13.33 31.95 13.33L31.95 13.33ZM33.43 9.74L33.43 9.74L33.43 9.74Q33.43 8.01 34.29 7.01L34.29 7.01L34.29 7.01Q35.16 6.02 36.74 6.02L36.74 6.02L36.74 6.02Q38.57 6.02 39.46 6.96L39.46 6.96L39.46 6.96Q40.35 7.90 40.35 9.99L40.35 9.99L40.35 9.99Q40.35 10.40 39.96 10.40L39.96 10.40L35.45 10.40L35.45 10.40Q35.56 11.54 36.01 11.83L36.01 11.83L36.01 11.83Q36.46 12.13 37.06 12.13L37.06 12.13L37.06 12.13Q37.63 12.13 37.93 11.98L37.93 11.98L37.93 11.98Q38.23 11.83 38.43 11.57L38.43 11.57L38.43 11.57Q38.66 11.27 39.01 11.47L39.01 11.47L39.69 11.89L39.69 11.89Q40.09 12.13 39.81 12.48L39.81 12.48L39.81 12.48Q39.39 12.97 38.83 13.22L38.83 13.22L38.83 13.22Q38.27 13.47 37.06 13.47L37.06 13.47L37.06 13.47Q35.10 13.47 34.26 12.47L34.26 12.47L34.26 12.47Q33.43 11.47 33.43 9.74ZM35.46 9.04L35.46 9.04L38.43 9.04L38.43 9.04Q38.43 8.30 38.06 7.83L38.06 7.83L38.06 7.83Q37.69 7.36 36.89 7.36L36.89 7.36L36.89 7.36Q36.24 7.36 35.87 7.81L35.87 7.81L35.87 7.81Q35.49 8.26 35.46 9.04ZM43.34 13.33L42.25 13.33L42.25 13.33Q41.84 13.33 41.84 12.92L41.84 12.92L41.84 6.56L41.84 6.56Q41.84 6.15 42.25 6.15L42.25 6.15L43.33 6.15L43.33 6.15Q43.74 6.15 43.74 6.56L43.74 6.56L43.74 6.96L43.76 6.96L43.76 6.96Q44.08 6.42 44.56 6.22L44.56 6.22L44.56 6.22Q45.05 6.02 45.73 6.02L45.73 6.02L45.73 6.02Q46.80 6.02 47.50 6.69L47.50 6.69L47.50 6.69Q48.19 7.36 48.19 9.13L48.19 9.13L48.19 12.92L48.19 12.92Q48.19 13.33 47.78 13.33L47.78 13.33L46.69 13.33L46.69 13.33Q46.28 13.33 46.28 12.92L46.28 12.92L46.28 9.63L46.28 9.63Q46.28 8.13 46.07 7.75L46.07 7.75L46.07 7.75Q45.87 7.36 45.19 7.36L45.19 7.36L45.19 7.36Q44.47 7.36 44.11 7.91L44.11 7.91L44.11 7.91Q43.75 8.47 43.75 10.23L43.75 10.23L43.75 12.92L43.75 12.92Q43.75 13.33 43.34 13.33L43.34 13.33Z"></path></g><!----><!----></svg>